<svg xmlns="http://www.w3.org/2000/svg" xmlns:xlink="http://www.w3.org/1999/xlink" width="157" height="39" viewBox="0 0 157 39">
  <defs>
    <linearGradient id="linear-gradient" x1="0.242" y1="1.407" x2="0.919" gradientUnits="objectBoundingBox">
      <stop offset="0" stop-color="#ff584e"/>
      <stop offset="1" stop-color="#618ff9"/>
    </linearGradient>
  </defs>
  <g id="Group_36" data-name="Group 36" transform="translate(-296.03 -709.037)">
    <rect id="Rectangle_12" data-name="Rectangle 12" width="157" height="39" rx="4" transform="translate(296.03 709.037)" fill="url(#linear-gradient)"/>
    <path id="Path_14" data-name="Path 14" d="M-74.712-3.879h5.023c2.579,0,4.45-1.3,4.45-3.658a3.112,3.112,0,0,0-1.989-2.9,2.919,2.919,0,0,0,1.534-2.478c0-2.039-1.9-3.118-4.079-3.118h-4.939Zm4.6-2.562h-1.669V-8.936h1.669c1.315,0,1.871.438,1.871,1.18C-68.24-6.913-68.8-6.441-70.11-6.441Zm.034-5.006h-1.7V-13.47h1.635c1.045,0,1.483.371,1.483,1.028C-68.661-11.818-69.082-11.447-70.077-11.447ZM-60.2-3.711a4.466,4.466,0,0,0,4.618-4.551A4.462,4.462,0,0,0-60.2-12.8a4.443,4.443,0,0,0-4.618,4.534A4.446,4.446,0,0,0-60.2-3.711Zm0-2.36c-1.112,0-1.8-.91-1.8-2.191,0-1.264.691-2.174,1.8-2.174a1.926,1.926,0,0,1,1.8,2.174C-58.4-6.98-59.121-6.07-60.2-6.07Zm9.675,2.36a4.466,4.466,0,0,0,4.618-4.551A4.462,4.462,0,0,0-50.525-12.8a4.443,4.443,0,0,0-4.618,4.534A4.446,4.446,0,0,0-50.525-3.711Zm0-2.36c-1.112,0-1.8-.91-1.8-2.191,0-1.264.691-2.174,1.8-2.174a1.926,1.926,0,0,1,1.8,2.174C-48.721-6.98-49.446-6.07-50.525-6.07Zm10.619-6.557-.084.084-1.146,1.2-1.18,1.247v-6.1H-45.1V-3.879h2.781V-6.391l.86-.893,2.09,3.337.034.067h3.354v-.067l-3.54-5.293,2.073-2.107,1.2-1.2v-.084Zm9.388,8.916a2.687,2.687,0,0,0,2.107-.86v.691h2.781V-9.34c0-2.09-1.568-3.455-3.995-3.455a3.869,3.869,0,0,0-3.995,2.663l2.478.573a1.452,1.452,0,0,1,1.517-1.18A1.11,1.11,0,0,1-28.41-9.677v.32l-2.056.253c-2.023.253-3.2,1.214-3.2,2.8C-33.669-4.874-32.338-3.711-30.517-3.711Zm-.337-2.731c0-.438.27-.708.876-.826l1.568-.287v.725a1.713,1.713,0,0,1-1.551,1.146A.8.8,0,0,1-30.854-6.441ZM-21.7-3.879h2.933v-3.86c0-1.652-.152-3.455-.152-3.455s.624,1.7,1.348,3.186l2.006,4.13h2.191l2.006-4.13C-10.645-9.492-10-11.177-10-11.177s-.185,1.787-.185,3.438v3.86h2.933V-16.032h-3.422l-2.613,5.444a21.263,21.263,0,0,0-1.2,3.2,19.274,19.274,0,0,0-1.163-3.2l-2.6-5.444H-21.7ZM-6.448-8.261A4.387,4.387,0,0,0-1.914-3.711c2.36,0,3.792-1.045,4.214-2.6L-.38-6.964A1.379,1.379,0,0,1-1.83-6,1.8,1.8,0,0,1-3.7-7.57H2.334C2.57-9.93,1.777-12.8-2.032-12.8A4.326,4.326,0,0,0-6.448-8.261Zm2.815-1.214a1.557,1.557,0,0,1,1.6-1.3,1.4,1.4,0,0,1,1.45,1.3ZM2.856-8.261A4.387,4.387,0,0,0,7.39-3.711c2.36,0,3.792-1.045,4.214-2.6l-2.68-.657A1.379,1.379,0,0,1,7.474-6,1.8,1.8,0,0,1,5.6-7.57h6.034c.236-2.36-.556-5.225-4.366-5.225A4.326,4.326,0,0,0,2.856-8.261ZM5.671-9.475a1.557,1.557,0,0,1,1.6-1.3,1.4,1.4,0,0,1,1.45,1.3ZM16.307-3.711A3.135,3.135,0,0,0,17.79-4V-6.256a1.4,1.4,0,0,1-.725.185,1.032,1.032,0,0,1-1.146-1.18v-3.085H17.79v-2.292H15.919v-2.09H13.306c0,1.719-.253,2.09-1.517,2.09v2.292h1.348v3.422A2.931,2.931,0,0,0,16.307-3.711Zm5.09-.169v-8.748H18.616v8.748Zm-1.416-9.49a1.616,1.616,0,0,0,1.652-1.618,1.612,1.612,0,0,0-1.652-1.6,1.594,1.594,0,0,0-1.618,1.6A1.6,1.6,0,0,0,19.981-13.369Zm2.6,9.49h2.781V-8.8c.118-.944.708-1.635,1.433-1.635.86,0,1.332.539,1.332,1.517v5.04H30.9V-9.644A3.149,3.149,0,0,0,27.566-12.8a2.714,2.714,0,0,0-2.208.994v-.826H22.577ZM35.943-.559c2.41,0,4.585-.725,4.585-3.034,0-1.568-1.146-2.461-3.2-2.461h-2.41c-.354,0-.489-.135-.489-.354a.577.577,0,0,1,.354-.438,5.37,5.37,0,0,0,.758.051c2.191,0,3.641-1.2,3.641-3a2.79,2.79,0,0,0-.051-.539h1.18v-2.292l-2.764.253a4.575,4.575,0,0,0-2.006-.421c-2.174,0-3.624,1.18-3.624,3A2.747,2.747,0,0,0,32.926-7.6a1.947,1.947,0,0,0-1.163,1.719,1.562,1.562,0,0,0,.523,1.163A2.224,2.224,0,0,0,31.46-3.07C31.46-1.4,32.943-.559,35.943-.559Zm-.4-8.343A.939.939,0,0,1,34.477-9.8c0-.556.421-.893,1.062-.893.624,0,1.079.337,1.079.893C36.617-9.273,36.179-8.9,35.539-8.9ZM34.156-3.407a.814.814,0,0,1,.236-.523L35-3.9h1.972c.556,0,.843.1.843.455,0,.438-.438.725-1.871.725S34.156-3.036,34.156-3.407Z" transform="translate(390.086 738.162)"/>
  </g>
</svg>
