<svg xmlns="http://www.w3.org/2000/svg" xmlns:xlink="http://www.w3.org/1999/xlink" width="250.278" height="123.035" viewBox="0 0 250.278 123.035">
  <defs>
    <linearGradient id="linear-gradient" x1="0.5" x2="0.5" y2="1" gradientUnits="objectBoundingBox">
      <stop offset="0" stop-color="#ff584e"/>
      <stop offset="1" stop-color="#7ed900"/>
    </linearGradient>
  </defs>
  <g id="Group_16" data-name="Group 16" transform="translate(-222.929)">
    <path id="_051" data-name="051" d="M252.787,2.5A125.157,125.157,0,0,1,2.508,2.5Z" transform="translate(220.421 -2.5)" fill="url(#linear-gradient)"/>
    <path id="Path_12" data-name="Path 12" d="M-84.556,0h6.069c3.192,0,5.334-1.6,5.334-4.515a3.793,3.793,0,0,0-2.541-3.654A3.515,3.515,0,0,0-73.7-11.277c0-2.52-2.184-3.864-4.977-3.864h-5.88Zm5.607-2.646h-2.583V-6.615h2.583c1.848,0,2.709.693,2.709,1.911C-76.241-3.381-77.1-2.646-78.95-2.646Zm.021-6.573h-2.6V-12.5h2.541c1.491,0,2.226.609,2.226,1.659C-76.765-9.807-77.479-9.219-78.928-9.219ZM-72,0h2.856V-6.006A3,3,0,0,1-65.4-8.337v-2.73a3,3,0,0,0-.693-.042,3.65,3.65,0,0,0-3.045,1.785V-10.9H-72Zm10.458.21a3.534,3.534,0,0,0,2.961-1.386V0h2.856V-6.951c0-2.562-1.89-4.158-4.725-4.158a4.677,4.677,0,0,0-4.83,3.255l2.583.63a2.122,2.122,0,0,1,2.247-1.722,1.713,1.713,0,0,1,1.89,1.722v.4l-2.94.4c-2.436.336-3.885,1.491-3.885,3.444C-65.383-1.176-63.767.21-61.541.21Zm-.945-3.318c0-.756.5-1.176,1.47-1.365l2.436-.42v1.218a2.618,2.618,0,0,1-2.436,1.806A1.322,1.322,0,0,1-62.486-3.108ZM-54.148,0h2.856V-6.342A2.569,2.569,0,0,1-49-8.673,1.9,1.9,0,0,1-47.008-6.51V0h2.856V-7.224a3.845,3.845,0,0,0-4.116-3.885,3.71,3.71,0,0,0-3.024,1.491V-10.9h-2.856Zm16.212.21a3.979,3.979,0,0,0,3.129-1.449V0h2.835V-15.351h-2.835v5.67a3.966,3.966,0,0,0-3.129-1.428c-2.982,0-5.124,2.373-5.124,5.649S-40.918.21-37.937.21Zm.525-2.457c-1.6,0-2.73-1.344-2.73-3.255,0-1.869,1.134-3.171,2.73-3.171a2.611,2.611,0,0,1,2.6,2.52V-4.83A2.668,2.668,0,0,1-37.411-2.247ZM-26.722,0h2.856V-6.342a2.569,2.569,0,0,1,2.289-2.331,1.9,1.9,0,0,1,2,2.163V0h2.856V-7.224a3.845,3.845,0,0,0-4.116-3.885,3.71,3.71,0,0,0-3.024,1.491V-10.9h-2.856Zm11.088-5.46A5.4,5.4,0,0,0-10.111.21c2.793,0,4.557-1.281,5.1-3.234l-2.772-.714a2.105,2.105,0,0,1-2.247,1.554A2.7,2.7,0,0,1-12.8-4.83h7.812c.294-2.688-.672-6.279-5.25-6.279A5.331,5.331,0,0,0-15.634-5.46Zm2.919-1.386a2.43,2.43,0,0,1,2.478-2.142A2.194,2.194,0,0,1-7.97-6.846ZM-1.711,0H.767L2.993-6.93,5.156,0H7.718l2.94-9.408.441-1.386V-10.9H8.222l-.021.105L7.844-9.408,6.437-3.99,4.778-9.408l-.441-1.386L4.295-10.9h-2.6l-.042.105-.42,1.386-.042.189L-.43-3.99-1.858-9.408l-.357-1.386-.042-.105H-5.092v.105l.441,1.386ZM16.895,0h2.478L21.6-6.93,23.762,0h2.562l2.94-9.408.441-1.386V-10.9H26.828l-.021.105L26.45-9.408,25.043-3.99,23.384-9.408l-.441-1.386L22.9-10.9H20.3l-.042.105-.42,1.386-.042.189L18.176-3.99,16.748-9.408l-.357-1.386-.042-.105H13.514v.105l.441,1.386ZM29.474-5.46A5.4,5.4,0,0,0,35,.21c2.793,0,4.557-1.281,5.1-3.234l-2.772-.714a2.105,2.105,0,0,1-2.247,1.554A2.7,2.7,0,0,1,32.309-4.83h7.812c.294-2.688-.672-6.279-5.25-6.279A5.331,5.331,0,0,0,29.474-5.46Zm2.919-1.386a2.43,2.43,0,0,1,2.478-2.142,2.194,2.194,0,0,1,2.268,2.142ZM47.344.21c2.982,0,5.1-2.394,5.1-5.67s-2.121-5.649-5.082-5.649a3.947,3.947,0,0,0-3.15,1.428v-5.67H41.359V0h2.856V-1.239A3.946,3.946,0,0,0,47.344.21Zm-.567-2.457A2.646,2.646,0,0,1,44.215-4.83V-6.153a2.6,2.6,0,0,1,2.625-2.52c1.554,0,2.709,1.3,2.709,3.171C49.549-3.591,48.394-2.247,46.777-2.247Zm11,2.457c2.6,0,4.41-1.617,4.41-3.486,0-2.352-1.554-2.961-3.276-3.36l-1.638-.378c-.735-.189-1.134-.441-1.134-.945,0-.525.5-1.008,1.407-1.008A1.681,1.681,0,0,1,59.336-7.56h.084l2.541-.672c-.315-1.6-2.037-2.877-4.41-2.877-2.5,0-4.242,1.491-4.242,3.381,0,2.079,1.659,2.688,2.919,2.982l2.016.483c.693.168,1.092.483,1.092,1.029,0,.693-.609,1.134-1.554,1.134A2.069,2.069,0,0,1,55.6-3.843h-.084l-2.541.651C53.12-1.386,54.947.21,57.782.21ZM66.161,0V-10.9H63.3V0ZM64.712-12.159a1.726,1.726,0,0,0,1.764-1.722A1.726,1.726,0,0,0,64.712-15.6a1.7,1.7,0,0,0-1.7,1.722A1.7,1.7,0,0,0,64.712-12.159ZM72.419.21a3.514,3.514,0,0,0,1.722-.357V-2.5a2,2,0,0,1-1.029.252A1.351,1.351,0,0,1,71.642-3.8V-8.526H74.2V-10.9H71.642v-2.583H68.953c0,2.226-.231,2.583-1.953,2.583v2.373h1.785v5.019A3.387,3.387,0,0,0,72.419.21Zm2.037-5.67A5.4,5.4,0,0,0,79.979.21c2.793,0,4.557-1.281,5.1-3.234L82.31-3.738a2.105,2.105,0,0,1-2.247,1.554A2.7,2.7,0,0,1,77.291-4.83H85.1c.294-2.688-.672-6.279-5.25-6.279A5.331,5.331,0,0,0,74.456-5.46Zm2.919-1.386a2.43,2.43,0,0,1,2.478-2.142,2.194,2.194,0,0,1,2.268,2.142ZM-63.431,21V5.859h-3.024V21Zm6.09.21c2.6,0,4.41-1.617,4.41-3.486,0-2.352-1.554-2.961-3.276-3.36l-1.638-.378c-.735-.189-1.134-.441-1.134-.945,0-.525.5-1.008,1.407-1.008a1.681,1.681,0,0,1,1.785,1.407h.084l2.541-.672c-.315-1.6-2.037-2.877-4.41-2.877-2.5,0-4.242,1.491-4.242,3.381,0,2.079,1.659,2.688,2.919,2.982l2.016.483c.693.168,1.092.483,1.092,1.029,0,.693-.609,1.134-1.554,1.134a2.069,2.069,0,0,1-2.184-1.743h-.084l-2.541.651C-62,19.614-60.175,21.21-57.34,21.21Zm14.091,0c2.73,0,4.7-1.449,5.124-3.948l-2.835-.4a2.156,2.156,0,0,1-2.226,1.89c-1.6,0-2.646-1.281-2.646-3.213,0-1.911,1.05-3.213,2.646-3.213a2.118,2.118,0,0,1,2.142,1.743h.084l2.73-.4c-.357-2.331-2.268-3.78-5.019-3.78A5.338,5.338,0,0,0-48.73,15.54,5.356,5.356,0,0,0-43.25,21.21Zm11.235,0a5.492,5.492,0,0,0,5.607-5.67,5.475,5.475,0,0,0-5.607-5.649,5.45,5.45,0,0,0-5.607,5.649A5.468,5.468,0,0,0-32.014,21.21Zm0-2.457c-1.638,0-2.709-1.344-2.709-3.213s1.071-3.213,2.709-3.213c1.575,0,2.709,1.344,2.709,3.213S-30.418,18.753-32.014,18.753ZM-25.232,21h2.856V14.658a2.458,2.458,0,0,1,2.163-2.331c.819,0,1.722.4,1.722,2.163V21h2.856V14.637a2.4,2.4,0,0,1,2.163-2.31c.819,0,1.722.4,1.722,2.163V21h2.856V13.608a3.64,3.64,0,0,0-3.843-3.717,3.724,3.724,0,0,0-3.339,1.827A3.417,3.417,0,0,0-19.31,9.891,3.718,3.718,0,0,0-22.376,11.4V10.1h-2.856Zm20.79,0V10.1H-7.3V21ZM-5.891,8.841A1.726,1.726,0,0,0-4.126,7.119,1.726,1.726,0,0,0-5.891,5.4a1.7,1.7,0,0,0-1.7,1.722A1.7,1.7,0,0,0-5.891,8.841ZM-2.762,21H.094V14.658a2.569,2.569,0,0,1,2.289-2.331,1.9,1.9,0,0,1,2,2.163V21H7.234V13.776A3.845,3.845,0,0,0,3.118,9.891,3.71,3.71,0,0,0,.094,11.382V10.1H-2.762Zm16.254,4.137c3.087,0,5.565-1.029,5.565-3.7,0-1.932-1.47-3-3.843-3H12.148c-.63,0-.924-.189-.924-.567a.925.925,0,0,1,.546-.756,5.5,5.5,0,0,0,1.344.147c2.625,0,4.368-1.491,4.368-3.7a4.569,4.569,0,0,0-.147-1.092h1.449V10.08l-3.339.294a5.369,5.369,0,0,0-2.331-.483c-2.6,0-4.326,1.47-4.326,3.675a3.426,3.426,0,0,0,1.155,2.646,2.5,2.5,0,0,0-1.47,2.142,1.861,1.861,0,0,0,.714,1.491,2.738,2.738,0,0,0-1.071,2.121C8.116,24.108,10.027,25.137,13.492,25.137Zm-.378-10.08a1.494,1.494,0,0,1-1.659-1.491,1.479,1.479,0,0,1,1.659-1.47,1.495,1.495,0,1,1,0,2.961Zm-2.2,6.594a1.308,1.308,0,0,1,.5-1.008c.252.021.525.042.819.042h2.646c.882,0,1.365.231,1.365.882,0,.8-.777,1.3-2.751,1.3C11.665,22.869,10.909,22.428,10.909,21.651ZM27.52,21.21c2.6,0,4.41-1.617,4.41-3.486,0-2.352-1.554-2.961-3.276-3.36l-1.638-.378c-.735-.189-1.134-.441-1.134-.945,0-.525.5-1.008,1.407-1.008a1.681,1.681,0,0,1,1.785,1.407h.084l2.541-.672c-.315-1.6-2.037-2.877-4.41-2.877-2.5,0-4.242,1.491-4.242,3.381,0,2.079,1.659,2.688,2.919,2.982l2.016.483c.693.168,1.092.483,1.092,1.029,0,.693-.609,1.134-1.554,1.134a2.069,2.069,0,0,1-2.184-1.743h-.084l-2.541.651C22.858,19.614,24.685,21.21,27.52,21.21Zm10.626,0a5.492,5.492,0,0,0,5.607-5.67,5.607,5.607,0,1,0-11.214,0A5.468,5.468,0,0,0,38.146,21.21Zm0-2.457c-1.638,0-2.709-1.344-2.709-3.213s1.071-3.213,2.709-3.213c1.575,0,2.709,1.344,2.709,3.213S39.742,18.753,38.146,18.753ZM50.032,21.21a5.492,5.492,0,0,0,5.607-5.67,5.607,5.607,0,1,0-11.214,0A5.468,5.468,0,0,0,50.032,21.21Zm0-2.457c-1.638,0-2.709-1.344-2.709-3.213s1.071-3.213,2.709-3.213c1.575,0,2.709,1.344,2.709,3.213S51.628,18.753,50.032,18.753ZM56.815,21h2.856V14.658a2.569,2.569,0,0,1,2.289-2.331,1.9,1.9,0,0,1,1.995,2.163V21h2.856V13.776A3.845,3.845,0,0,0,62.7,9.891a3.71,3.71,0,0,0-3.024,1.491V10.1H56.815Z" transform="translate(351.356 40.311)"/>
  </g>
</svg>
