<svg xmlns="http://www.w3.org/2000/svg" width="351.681" height="70.954" viewBox="0 0 351.681 70.954">
  <path id="Path_7" data-name="Path 7" d="M39.718,32h2.343L50.41,10.319l.792-1.98V8.207H48.628l-.066.132-.726,1.98-6.9,18.48-6.963-18.48-.726-1.98-.033-.132h-2.64v.132l.759,1.98Zm15.213,0V14.873H52.72V32ZM53.809,11.639a1.634,1.634,0,1,0,0-3.267,1.634,1.634,0,0,0,0,3.267ZM65.425,32.33a6.878,6.878,0,0,0,5.907-3.267V32h2.211V7.877H71.332v9.867a6.9,6.9,0,0,0-5.907-3.2c-4.62,0-8.052,3.729-8.052,8.877S60.805,32.33,65.425,32.33Zm.2-2.046c-3.465,0-5.907-2.739-5.907-6.864s2.442-6.831,5.907-6.831c3.168,0,5.478,2.343,5.709,5.676v2.31C71.1,27.875,68.791,30.284,65.623,30.284ZM75.985,23.42c0,5.247,3.4,8.91,8.184,8.91,3.861,0,6.5-1.947,7.458-5.016l-2.277-.792c-.726,2.607-2.376,3.8-5.148,3.8-3.5,0-5.874-2.574-5.94-6.8H91.594c.4-3.234-.99-8.976-7.524-8.976C79.285,14.543,75.985,18.206,75.985,23.42ZM78.394,21.7c.528-3.135,2.541-5.247,5.676-5.247,3.069,0,5.016,2.079,5.214,5.247Zm23,10.626c4.785,0,8.316-3.762,8.316-8.91,0-5.115-3.531-8.877-8.316-8.877-4.818,0-8.316,3.762-8.316,8.877C93.079,28.568,96.577,32.33,101.4,32.33Zm0-2.046c-3.465,0-5.94-2.9-5.94-6.864s2.475-6.831,5.94-6.831,5.973,2.871,5.973,6.831S104.86,30.284,101.4,30.284Zm21.483,2.046a6.589,6.589,0,0,0,5.907-3.531V32H131V20.549c0-3.927-2.772-6.006-6.5-6.006-4.026,0-6.27,2.277-7.062,4.851l2.211.726a4.513,4.513,0,0,1,4.851-3.63c2.442,0,4.29,1.32,4.29,4.224v.594l-5.973.924c-3.531.561-5.709,2.31-5.709,5.214C117.1,30.416,119.512,32.33,122.878,32.33Zm-3.432-4.95c0-1.914,1.386-2.9,3.663-3.267l5.676-.924V25.8a5.858,5.858,0,0,1-5.676,4.62C120.964,30.416,119.446,29.228,119.446,27.38Zm21.879,4.95a6.878,6.878,0,0,0,5.907-3.267V32h2.211V7.877h-2.211v9.867a6.9,6.9,0,0,0-5.907-3.2c-4.62,0-8.052,3.729-8.052,8.877S136.705,32.33,141.325,32.33Zm.2-2.046c-3.465,0-5.907-2.739-5.907-6.864s2.442-6.831,5.907-6.831c3.168,0,5.478,2.343,5.709,5.676v2.31C147,27.875,144.691,30.284,141.523,30.284ZM157.4,32h2.475l5.445-14.949.759-2.046v-.132h-2.31l-.066.132-.693,2.046-4.389,12.441-4.455-12.441-.726-2.046-.066-.132h-2.244v.132l.759,2.046Zm8.712-8.58c0,5.247,3.4,8.91,8.184,8.91,3.861,0,6.5-1.947,7.458-5.016l-2.277-.792c-.726,2.607-2.376,3.8-5.148,3.8-3.5,0-5.874-2.574-5.94-6.8h13.332c.4-3.234-.99-8.976-7.524-8.976C169.408,14.543,166.108,18.206,166.108,23.42Zm2.409-1.716c.528-3.135,2.541-5.247,5.676-5.247,3.069,0,5.016,2.079,5.214,5.247ZM184.225,32h2.211V21.506c.5-2.178,2.343-5.346,5.973-4.719V14.609a4.514,4.514,0,0,0-.957-.066,5.648,5.648,0,0,0-5.016,3.366V14.873h-2.211Zm15.972.33a4.284,4.284,0,0,0,2.211-.561V29.723a3.372,3.372,0,0,1-2.079.561c-1.287,0-2.442-.825-2.442-2.805V16.82h4.818V14.873h-4.818v-3.96h-2.145c0,3.828-.066,3.96-3.3,3.96V16.82h3.234V27.479C195.676,30.779,197.557,32.33,200.2,32.33Zm6.567-.33V14.873h-2.211V32Zm-1.122-20.361a1.634,1.634,0,1,0,0-3.267,1.634,1.634,0,0,0,0,3.267Zm10.23,20.691c3.63,0,6.138-2.046,6.138-5.082,0-3.267-2.145-4.224-4.521-4.851l-3.2-.792c-1.386-.33-2.442-1.056-2.442-2.442,0-1.419,1.353-2.673,3.465-2.673a3.787,3.787,0,0,1,4.026,3.3h.132l2.112-.825c-.66-2.739-2.805-4.422-6.27-4.422-3.432,0-5.841,2.046-5.841,4.686,0,2.871,2.013,3.861,4.092,4.389l3.3.792c1.65.4,2.772,1.221,2.772,2.838,0,1.881-1.518,3.069-3.762,3.069a4.458,4.458,0,0,1-4.785-4.059h-.132l-2.046,1.023C209.371,29.987,211.582,32.33,215.872,32.33ZM226.5,32V14.873h-2.211V32Zm-1.122-20.361a1.634,1.634,0,1,0,0-3.267,1.634,1.634,0,0,0,0,3.267ZM229.93,32h2.211V21.308c.693-2.574,2.805-4.719,5.445-4.719a4.057,4.057,0,0,1,4.389,4.389V32h2.244V20.516c0-3.7-2.541-5.973-6.336-5.973a7.022,7.022,0,0,0-5.742,3.234v-2.9H229.93Zm23.958,6.5c5.214,0,8.217-2.112,8.217-5.544,0-2.9-2.376-4.389-5.478-4.389h-5.082c-1.683,0-2.541-.363-2.541-1.452A2.6,2.6,0,0,1,250.555,25a7.225,7.225,0,0,0,3.267.726c3.729,0,6.237-2.277,6.237-5.577A5.362,5.362,0,0,0,259,16.82h2.706V14.807l-4.917.3a7.566,7.566,0,0,0-2.97-.561c-3.7,0-6.171,2.277-6.171,5.61a5.288,5.288,0,0,0,1.452,3.762c-1.122.693-2.376,1.881-2.376,3.4a2.624,2.624,0,0,0,1.353,2.442,4.862,4.862,0,0,0-1.848,3.663C246.232,36.983,249.466,38.5,253.888,38.5Zm-.066-14.718c-2.409,0-3.894-1.485-3.894-3.63a3.547,3.547,0,0,1,3.894-3.663c2.442,0,3.96,1.485,3.96,3.663C257.782,22.3,256.264,23.783,253.822,23.783Zm-5.28,9.537a3.162,3.162,0,0,1,1.683-2.9c.429.033.891.066,1.386.066h4.884c2.145,0,3.3.726,3.3,2.541,0,2.145-2.013,3.5-5.907,3.5C250.918,36.521,248.542,35.63,248.542,33.32ZM270.619,32h2.244V16.82h4.521V14.873h-4.521V12.4c0-1.947,1.122-2.805,2.442-2.805a2.991,2.991,0,0,1,1.947.561h.132V8.108a4.4,4.4,0,0,0-2.277-.561c-2.541,0-4.488,1.551-4.488,4.851v2.475h-3.234V16.82h3.234Zm14.751.33c4.785,0,8.316-3.762,8.316-8.91,0-5.115-3.531-8.877-8.316-8.877-4.818,0-8.316,3.762-8.316,8.877C277.054,28.568,280.552,32.33,285.37,32.33Zm0-2.046c-3.465,0-5.94-2.9-5.94-6.864s2.475-6.831,5.94-6.831,5.973,2.871,5.973,6.831S288.835,30.284,285.37,30.284ZM296.128,32h2.211V21.506c.495-2.178,2.343-5.346,5.973-4.719V14.609a4.514,4.514,0,0,0-.957-.066,5.648,5.648,0,0,0-5.016,3.366V14.873h-2.211Zm14.124-8.58c0,5.247,3.4,8.91,8.184,8.91,3.861,0,6.5-1.947,7.458-5.016l-2.277-.792c-.726,2.607-2.376,3.8-5.148,3.8-3.5,0-5.874-2.574-5.94-6.8h13.332c.4-3.234-.99-8.976-7.524-8.976C313.552,14.543,310.252,18.206,310.252,23.42Zm2.409-1.716c.528-3.135,2.541-5.247,5.676-5.247,3.069,0,5.016,2.079,5.214,5.247ZM332.329,32H334.8l5.445-14.949.759-2.046v-.132H338.7l-.066.132-.693,2.046L333.55,29.492,329.1,17.051l-.726-2.046-.066-.132h-2.244v.132l.759,2.046Zm8.712-8.58c0,5.247,3.4,8.91,8.184,8.91,3.861,0,6.5-1.947,7.458-5.016l-2.277-.792c-.726,2.607-2.376,3.8-5.148,3.8-3.5,0-5.874-2.574-5.94-6.8H356.65c.4-3.234-.99-8.976-7.524-8.976C344.341,14.543,341.041,18.206,341.041,23.42ZM343.45,21.7c.528-3.135,2.541-5.247,5.676-5.247,3.069,0,5.016,2.079,5.214,5.247ZM359.158,32h2.211V21.506c.495-2.178,2.343-5.346,5.973-4.719V14.609a4.514,4.514,0,0,0-.957-.066,5.648,5.648,0,0,0-5.016,3.366V14.873h-2.211Zm10.758,6.5c2.64,0,4.323-1.518,5.412-4.455l6.2-17.16.726-1.881v-.132h-2.343l-.066.132-.627,1.881-4.455,12.606-4.521-12.606-.66-1.881-.033-.132h-2.277v.132l6.4,17.325-.363,1.056c-.726,2.178-2.079,3.036-3.366,3.036A3.692,3.692,0,0,1,368,35.96l-.726,1.881A4.773,4.773,0,0,0,369.916,38.5ZM80.209,72.33c4.62,0,8.052-3.762,8.052-8.91s-3.432-8.877-7.92-8.877a6.96,6.96,0,0,0-6.039,3.2V47.877H72.091V72H74.3V69.063A6.878,6.878,0,0,0,80.209,72.33Zm-.2-2.046c-3.168,0-5.478-2.409-5.709-5.709v-2.31a5.731,5.731,0,0,1,5.841-5.676c3.333,0,5.775,2.706,5.775,6.831S83.476,70.284,80.011,70.284ZM90.7,72h2.211V61.506c.5-2.178,2.343-5.346,5.973-4.719V54.609a4.514,4.514,0,0,0-.957-.066,5.648,5.648,0,0,0-5.016,3.366V54.873H90.7Zm13.86.33A6.589,6.589,0,0,0,110.47,68.8V72h2.211V60.549c0-3.927-2.772-6.006-6.5-6.006-4.026,0-6.27,2.277-7.062,4.851l2.211.726a4.513,4.513,0,0,1,4.851-3.63c2.442,0,4.29,1.32,4.29,4.224v.594l-5.973.924c-3.531.561-5.709,2.31-5.709,5.214C98.788,70.416,101.2,72.33,104.563,72.33Zm-3.432-4.95c0-1.914,1.386-2.9,3.663-3.267l5.676-.924V65.8a5.858,5.858,0,0,1-5.676,4.62C102.649,70.416,101.131,69.228,101.131,67.38ZM115.948,72h2.211V61.308c.693-2.574,2.805-4.719,5.445-4.719a4.057,4.057,0,0,1,4.389,4.389V72h2.244V60.516c0-3.7-2.541-5.973-6.336-5.973a7.022,7.022,0,0,0-5.742,3.234v-2.9h-2.211Zm24.618.33a6.878,6.878,0,0,0,5.907-3.267V72h2.211V47.877h-2.211v9.867a6.9,6.9,0,0,0-5.907-3.2c-4.62,0-8.052,3.729-8.052,8.877S135.946,72.33,140.566,72.33Zm.2-2.046c-3.465,0-5.907-2.739-5.907-6.864s2.442-6.831,5.907-6.831c3.168,0,5.478,2.343,5.709,5.676v2.31C146.242,67.875,143.932,70.284,140.764,70.284Zm24.651,2.046c4.785,0,8.316-3.762,8.316-8.91,0-5.115-3.531-8.877-8.316-8.877-4.818,0-8.316,3.762-8.316,8.877C157.1,68.568,160.6,72.33,165.415,72.33Zm0-2.046c-3.465,0-5.94-2.9-5.94-6.864s2.475-6.831,5.94-6.831,5.973,2.871,5.973,6.831S168.88,70.284,165.415,70.284ZM176.173,72h2.211V61.308c.693-2.574,2.805-4.719,5.445-4.719a4.057,4.057,0,0,1,4.389,4.389V72h2.244V60.516c0-3.7-2.541-5.973-6.336-5.973a7.022,7.022,0,0,0-5.742,3.234v-2.9h-2.211Zm28.281.33a6.589,6.589,0,0,0,5.907-3.531V72h2.211V60.549c0-3.927-2.772-6.006-6.5-6.006-4.026,0-6.27,2.277-7.062,4.851l2.211.726a4.513,4.513,0,0,1,4.851-3.63c2.442,0,4.29,1.32,4.29,4.224v.594l-5.973.924c-3.531.561-5.709,2.31-5.709,5.214C198.679,70.416,201.088,72.33,204.454,72.33Zm-3.432-4.95c0-1.914,1.386-2.9,3.663-3.267l5.676-.924V65.8a5.858,5.858,0,0,1-5.676,4.62C202.54,70.416,201.022,69.228,201.022,67.38ZM215.839,72h2.211V61.308c.693-2.574,2.805-4.719,5.445-4.719a4.057,4.057,0,0,1,4.389,4.389V72h2.244V60.516c0-3.7-2.541-5.973-6.336-5.973a7.022,7.022,0,0,0-5.742,3.234v-2.9h-2.211Zm17.985,6.5c2.64,0,4.323-1.518,5.412-4.455l6.2-17.16.726-1.881v-.132h-2.343l-.066.132-.627,1.881-4.455,12.606-4.521-12.606-.66-1.881-.033-.132h-2.277v.132l6.4,17.325-.363,1.056c-.726,2.178-2.079,3.036-3.366,3.036a3.692,3.692,0,0,1-1.947-.462l-.726,1.881A4.773,4.773,0,0,0,233.824,78.5ZM258.8,72.33c3.63,0,6.138-2.046,6.138-5.082,0-3.267-2.145-4.224-4.521-4.851l-3.2-.792c-1.386-.33-2.442-1.056-2.442-2.442,0-1.419,1.353-2.673,3.465-2.673a3.787,3.787,0,0,1,4.026,3.3h.132l2.112-.825c-.66-2.739-2.8-4.422-6.27-4.422-3.432,0-5.841,2.046-5.841,4.686,0,2.871,2.013,3.861,4.092,4.389l3.3.792c1.65.4,2.772,1.221,2.772,2.838,0,1.881-1.518,3.069-3.762,3.069a4.458,4.458,0,0,1-4.785-4.059h-.132l-2.046,1.023C252.3,69.987,254.515,72.33,258.8,72.33Zm15.708,0a6.963,6.963,0,0,0,7.161-5.775l-2.211-.528a4.761,4.761,0,0,1-4.983,4.257c-3.564,0-5.874-2.739-5.874-6.864,0-4.092,2.343-6.831,5.874-6.831a4.822,4.822,0,0,1,4.884,3.96h.132l2.112-.561c-.627-3.267-3.465-5.445-7.1-5.445-4.95,0-8.283,3.564-8.283,8.877C266.23,68.766,269.563,72.33,274.513,72.33Zm9.372-.33H286.1V61.506c.495-2.178,2.343-5.346,5.973-4.719V54.609a4.514,4.514,0,0,0-.957-.066,5.648,5.648,0,0,0-5.016,3.366V54.873h-2.211Zm7.656-8.58c0,5.247,3.4,8.91,8.184,8.91,3.861,0,6.5-1.947,7.458-5.016l-2.277-.792c-.726,2.607-2.376,3.795-5.148,3.795-3.5,0-5.874-2.574-5.94-6.8H307.15c.4-3.234-.99-8.976-7.524-8.976C294.841,54.543,291.541,58.206,291.541,63.42ZM293.95,61.7c.528-3.135,2.541-5.247,5.676-5.247,3.069,0,5.016,2.079,5.214,5.247Zm14.718,1.716c0,5.247,3.4,8.91,8.184,8.91,3.861,0,6.5-1.947,7.458-5.016l-2.277-.792c-.726,2.607-2.376,3.795-5.148,3.795-3.5,0-5.874-2.574-5.94-6.8h13.332c.4-3.234-.99-8.976-7.524-8.976C311.968,54.543,308.668,58.206,308.668,63.42Zm2.409-1.716c.528-3.135,2.541-5.247,5.676-5.247,3.069,0,5.016,2.079,5.214,5.247ZM326.785,72H329V61.308c.693-2.574,2.8-4.719,5.445-4.719a4.057,4.057,0,0,1,4.389,4.389V72h2.244V60.516c0-3.7-2.541-5.973-6.336-5.973A7.022,7.022,0,0,0,329,57.777v-2.9h-2.211Z" transform="translate(-30.577 -7.547)" fill="#fff"/>
</svg>
