<svg xmlns="http://www.w3.org/2000/svg" width="340.065" height="70.294" viewBox="0 0 340.065 70.294">
  <path id="Path_9" data-name="Path 9" d="M36.342,32h2.442V15.929c0-2.343-.132-4.026-.132-4.026s.528,1.617,1.419,3.8L46.9,32h2.046L55.68,15.7C56.6,13.52,57.1,11.9,57.1,11.9s-.132,1.683-.132,4.026V32h2.442V8.207H56.34L49.212,25.6a26.428,26.428,0,0,0-1.254,3.8,29.966,29.966,0,0,0-1.287-3.8L39.444,8.207h-3.1Zm25.509-8.58c0,5.247,3.4,8.91,8.184,8.91,3.861,0,6.5-1.947,7.458-5.016l-2.277-.792c-.726,2.607-2.376,3.8-5.148,3.8-3.5,0-5.874-2.574-5.94-6.8H77.46c.4-3.234-.99-8.976-7.524-8.976C65.151,14.543,61.851,18.206,61.851,23.42ZM64.26,21.7c.528-3.135,2.541-5.247,5.676-5.247,3.069,0,5.016,2.079,5.214,5.247ZM78.978,23.42c0,5.247,3.4,8.91,8.184,8.91,3.861,0,6.5-1.947,7.458-5.016l-2.277-.792c-.726,2.607-2.376,3.8-5.148,3.8-3.5,0-5.874-2.574-5.94-6.8H94.587c.4-3.234-.99-8.976-7.524-8.976C82.278,14.543,78.978,18.206,78.978,23.42ZM81.387,21.7c.528-3.135,2.541-5.247,5.676-5.247,3.069,0,5.016,2.079,5.214,5.247ZM102.639,32.33a4.284,4.284,0,0,0,2.211-.561V29.723a3.372,3.372,0,0,1-2.079.561c-1.287,0-2.442-.825-2.442-2.805V16.82h4.818V14.873h-4.818v-3.96H98.184c0,3.828-.066,3.96-3.3,3.96V16.82h3.234V27.479C98.118,30.779,100,32.33,102.639,32.33Zm19.206,0c5.346,0,8.877-3.267,8.877-8.316V8.207H128.28V24.245c0,3.564-2.541,5.94-6.435,5.94-3.861,0-6.4-2.376-6.4-5.94V8.207H113V24.014C113,29.063,116.5,32.33,121.845,32.33Zm17.82,0c3.63,0,6.138-2.046,6.138-5.082,0-3.267-2.145-4.224-4.521-4.851l-3.2-.792c-1.386-.33-2.442-1.056-2.442-2.442,0-1.419,1.353-2.673,3.465-2.673a3.787,3.787,0,0,1,4.026,3.3h.132l2.112-.825c-.66-2.739-2.805-4.422-6.27-4.422-3.432,0-5.841,2.046-5.841,4.686,0,2.871,2.013,3.861,4.092,4.389l3.3.792c1.65.4,2.772,1.221,2.772,2.838,0,1.881-1.518,3.069-3.762,3.069a4.458,4.458,0,0,1-4.785-4.059h-.132L132.7,27.281C133.164,29.987,135.375,32.33,139.665,32.33Zm19.14,0a6.589,6.589,0,0,0,5.907-3.531V32h2.211V20.549c0-3.927-2.772-6.006-6.5-6.006-4.026,0-6.27,2.277-7.062,4.851l2.211.726a4.513,4.513,0,0,1,4.851-3.63c2.442,0,4.29,1.32,4.29,4.224v.594l-5.973.924c-3.531.561-5.709,2.31-5.709,5.214C153.03,30.416,155.439,32.33,158.805,32.33Zm-3.432-4.95c0-1.914,1.386-2.9,3.663-3.267l5.676-.924V25.8a5.858,5.858,0,0,1-5.676,4.62C156.891,30.416,155.373,29.228,155.373,27.38Zm20.394,4.95a4.284,4.284,0,0,0,2.211-.561V29.723a3.372,3.372,0,0,1-2.079.561c-1.287,0-2.442-.825-2.442-2.805V16.82h4.818V14.873h-4.818v-3.96h-2.145c0,3.828-.066,3.96-3.3,3.96V16.82h3.234V27.479C171.246,30.779,173.127,32.33,175.767,32.33ZM186.294,32h2.442V21.671h6.9c4.62,0,7.392-2.541,7.392-6.765,0-4.191-2.772-6.7-7.392-6.7h-9.339ZM195.5,19.526h-6.765V10.352H195.5c3.168,0,5.016,1.716,5.016,4.554C200.517,17.777,198.669,19.526,195.5,19.526Zm15.939,12.8c4.785,0,8.316-3.762,8.316-8.91,0-5.115-3.531-8.877-8.316-8.877-4.818,0-8.316,3.762-8.316,8.877C203.124,28.568,206.622,32.33,211.44,32.33Zm0-2.046c-3.465,0-5.94-2.9-5.94-6.864s2.475-6.831,5.94-6.831,5.973,2.871,5.973,6.831S214.905,30.284,211.44,30.284Zm16.434,2.046c3.63,0,6.138-2.046,6.138-5.082,0-3.267-2.145-4.224-4.521-4.851l-3.2-.792c-1.386-.33-2.442-1.056-2.442-2.442,0-1.419,1.353-2.673,3.465-2.673a3.787,3.787,0,0,1,4.026,3.3h.132l2.112-.825c-.66-2.739-2.805-4.422-6.27-4.422-3.432,0-5.841,2.046-5.841,4.686,0,2.871,2.013,3.861,4.092,4.389l3.3.792c1.65.4,2.772,1.221,2.772,2.838,0,1.881-1.518,3.069-3.762,3.069a4.458,4.458,0,0,1-4.785-4.059h-.132l-2.046,1.023C221.373,29.987,223.584,32.33,227.874,32.33Zm14.091,0c3.63,0,6.138-2.046,6.138-5.082,0-3.267-2.145-4.224-4.521-4.851l-3.2-.792c-1.386-.33-2.442-1.056-2.442-2.442,0-1.419,1.353-2.673,3.465-2.673a3.787,3.787,0,0,1,4.026,3.3h.132l2.112-.825c-.66-2.739-2.805-4.422-6.27-4.422-3.432,0-5.841,2.046-5.841,4.686,0,2.871,2.013,3.861,4.092,4.389l3.3.792c1.65.4,2.772,1.221,2.772,2.838,0,1.881-1.518,3.069-3.762,3.069a4.458,4.458,0,0,1-4.785-4.059h-.132L235,27.281C235.464,29.987,237.675,32.33,241.965,32.33ZM252.591,32V14.873H250.38V32Zm-1.122-20.361a1.634,1.634,0,1,0,0-3.267,1.634,1.634,0,0,0,0,3.267ZM264.141,32.33c4.62,0,8.052-3.762,8.052-8.91s-3.432-8.877-7.92-8.877a6.96,6.96,0,0,0-6.039,3.2V7.877h-2.211V32h2.211V29.063A6.878,6.878,0,0,0,264.141,32.33Zm-.2-2.046c-3.168,0-5.478-2.409-5.709-5.709v-2.31a5.731,5.731,0,0,1,5.841-5.676c3.333,0,5.775,2.706,5.775,6.831S267.408,30.284,263.943,30.284ZM276.846,32V7.877h-2.211V32Zm2.442-8.58c0,5.247,3.4,8.91,8.184,8.91,3.861,0,6.5-1.947,7.458-5.016l-2.277-.792c-.726,2.607-2.376,3.8-5.148,3.8-3.5,0-5.874-2.574-5.94-6.8H294.9c.4-3.234-.99-8.976-7.524-8.976C282.588,14.543,279.288,18.206,279.288,23.42ZM281.7,21.7c.528-3.135,2.541-5.247,5.676-5.247,3.069,0,5.016,2.079,5.214,5.247ZM303.576,32h15.081V29.855H306.018V20.417h10.131V18.272H306.018v-7.92h12.639V8.207H303.576Zm20.394,0h2.475l5.445-14.949.759-2.046v-.132h-2.31l-.066.132-.693,2.046-4.389,12.441-4.455-12.441-.726-2.046-.066-.132H317.7v.132l.759,2.046Zm8.712-8.58c0,5.247,3.4,8.91,8.184,8.91,3.861,0,6.5-1.947,7.458-5.016l-2.277-.792c-.726,2.607-2.376,3.8-5.148,3.8-3.5,0-5.874-2.574-5.94-6.8h13.332c.4-3.234-.99-8.976-7.524-8.976C335.982,14.543,332.682,18.206,332.682,23.42Zm2.409-1.716c.528-3.135,2.541-5.247,5.676-5.247,3.069,0,5.016,2.079,5.214,5.247ZM350.8,32h2.211V21.308c.693-2.574,2.8-4.719,5.445-4.719a4.057,4.057,0,0,1,4.389,4.389V32h2.244V20.516c0-3.7-2.541-5.973-6.336-5.973a7.022,7.022,0,0,0-5.742,3.234v-2.9H350.8Zm23.1.33a4.283,4.283,0,0,0,2.211-.561V29.723a3.372,3.372,0,0,1-2.079.561c-1.287,0-2.442-.825-2.442-2.805V16.82h4.818V14.873h-4.818v-3.96h-2.145c0,3.828-.066,3.96-3.3,3.96V16.82h3.234V27.479C369.378,30.779,371.259,32.33,373.9,32.33ZM89.043,72h2.508l.066-.132.792-1.98,1.716-4.356h11.154L107,69.888l.792,1.98.066.132h2.64v-.132l-.858-1.98-8.712-21.681H98.58L89.835,69.888l-.792,1.98Zm5.94-8.646,4.752-11.946,4.686,11.946Zm16.929,14.817h2.211V69.1a6.924,6.924,0,0,0,5.907,3.234c4.62,0,8.052-3.729,8.052-8.877s-3.432-8.91-7.92-8.91a6.914,6.914,0,0,0-6.039,3.234v-2.9h-2.211Zm7.92-7.887c-3.168,0-5.478-2.343-5.709-5.676V62.265a5.774,5.774,0,0,1,5.841-5.676c3.333,0,5.775,2.706,5.775,6.864C125.739,67.578,123.3,70.284,119.832,70.284ZM130.524,72h2.211V61.506c.5-2.178,2.343-5.346,5.973-4.719V54.609a4.514,4.514,0,0,0-.957-.066,5.648,5.648,0,0,0-5.016,3.366V54.873h-2.211ZM142.6,72V54.873h-2.211V72ZM141.48,51.639a1.634,1.634,0,1,0,0-3.267,1.634,1.634,0,0,0,0,3.267ZM148.245,72V47.877h-2.211V72Zm14.091,0h15.741V69.855H165.7l7.293-6.369c3.6-3.069,5.115-5.742,5.115-8.613,0-4.257-2.97-7-7.491-7-4.917,0-7.92,3.234-7.656,8.019l2.376.429h.132c-.33-3.8,1.518-6.3,5.148-6.3a4.583,4.583,0,0,1,4.95,4.851c0,2.409-1.32,4.488-4.092,6.93l-9.141,7.986Zm25.872.33c5.082,0,8.415-2.574,8.415-6.864a6.191,6.191,0,0,0-4.587-6.039,5.959,5.959,0,0,0,3.762-5.082c0-3.927-3-6.468-7.59-6.468-4.554,0-7.59,2.541-7.59,6.468a6.017,6.017,0,0,0,3.762,5.082,6.19,6.19,0,0,0-4.554,6.039C179.826,69.756,183.159,72.33,188.208,72.33Zm0-2.079c-3.531,0-5.907-1.815-5.907-4.785s2.376-4.851,5.907-4.851c3.564,0,5.94,1.881,5.94,4.851S191.772,70.251,188.208,70.251Zm0-11.748c-3,0-5.115-1.749-5.115-4.059,0-2.64,2.013-4.488,5.115-4.488,3.135,0,5.148,1.848,5.148,4.488C193.356,56.754,191.244,58.5,188.208,58.5Zm10.2,5.907h9.4V62.4h-9.4Zm9.7,7.59h15.741V69.855H211.473l7.293-6.369c3.6-3.069,5.115-5.742,5.115-8.613,0-4.257-2.97-7-7.491-7-4.917,0-7.92,3.234-7.656,8.019l2.376.429h.132c-.33-3.8,1.518-6.3,5.148-6.3a4.583,4.583,0,0,1,4.95,4.851c0,2.409-1.32,4.488-4.092,6.93l-9.141,7.986Zm26.433.33c5.874,0,8.844-4.884,8.844-12.243s-2.97-12.21-8.844-12.21c-5.907,0-8.844,4.884-8.844,12.21S228.633,72.33,234.54,72.33Zm0-2.145c-4.158,0-6.3-4.059-6.3-10.1,0-6.006,2.145-10.065,6.3-10.065s6.336,4.092,6.336,10.065C240.876,66.093,238.7,70.185,234.54,70.185ZM250.71,72h15.741V69.855H254.076l7.293-6.369c3.6-3.069,5.115-5.742,5.115-8.613,0-4.257-2.97-7-7.491-7-4.917,0-7.92,3.234-7.656,8.019l2.376.429h.132c-.33-3.8,1.518-6.3,5.148-6.3a4.583,4.583,0,0,1,4.95,4.851c0,2.409-1.32,4.488-4.092,6.93l-9.141,7.986Zm26.433.33c5.874,0,8.844-4.884,8.844-12.243s-2.97-12.21-8.844-12.21c-5.907,0-8.844,4.884-8.844,12.21S271.236,72.33,277.143,72.33Zm0-2.145c-4.158,0-6.3-4.059-6.3-10.1,0-6.006,2.145-10.065,6.3-10.065s6.336,4.092,6.336,10.065C283.479,66.093,281.3,70.185,277.143,70.185ZM287.307,72h15.741V69.855H290.673l7.293-6.369c3.6-3.069,5.115-5.742,5.115-8.613,0-4.257-2.97-7-7.491-7-4.917,0-7.92,3.234-7.656,8.019l2.376.429h.132c-.33-3.8,1.518-6.3,5.148-6.3a4.583,4.583,0,0,1,4.95,4.851c0,2.409-1.32,4.488-4.092,6.93l-9.141,7.986Zm25.575.264c4.95,0,8.184-3.234,8.184-8.085a7.682,7.682,0,0,0-8.052-8.085,8.125,8.125,0,0,0-5.412,2.079l1.089-7.821h11.385V48.207H306.909l-1.782,12.969h2.31a5.8,5.8,0,0,1,5.181-3.036c3.63,0,5.907,2.376,5.907,6.039,0,3.5-2.211,5.94-5.676,5.94a5.681,5.681,0,0,1-6.039-5.082h-.132l-2.277.528C304.995,69.69,308.295,72.264,312.882,72.264Z" transform="translate(-36.342 -7.877)" fill="#fff"/>
</svg>
