<svg xmlns="http://www.w3.org/2000/svg" width="329.76" height="71.376" viewBox="0 0 329.76 71.376">
  <path id="Path_15" data-name="Path 15" d="M-164.032,0h2.368V-15.584c0-2.272-.128-3.9-.128-3.9s.512,1.568,1.376,3.68L-153.792,0h1.984l6.528-15.808c.9-2.112,1.376-3.68,1.376-3.68s-.128,1.632-.128,3.9V0h2.368V-23.072h-2.976l-6.912,16.864a25.628,25.628,0,0,0-1.216,3.68,29.059,29.059,0,0,0-1.248-3.68l-7.008-16.864h-3.008ZM-139.3-8.32c0,5.088,3.3,8.64,7.936,8.64,3.744,0,6.3-1.888,7.232-4.864l-2.208-.768c-.7,2.528-2.3,3.68-4.992,3.68-3.392,0-5.7-2.5-5.76-6.592h12.928c.384-3.136-.96-8.7-7.3-8.7C-136.1-16.928-139.3-13.376-139.3-8.32Zm2.336-1.664c.512-3.04,2.464-5.088,5.5-5.088,2.976,0,4.864,2.016,5.056,5.088Zm14.272,1.664c0,5.088,3.3,8.64,7.936,8.64,3.744,0,6.3-1.888,7.232-4.864l-2.208-.768c-.7,2.528-2.3,3.68-4.992,3.68-3.392,0-5.7-2.5-5.76-6.592h12.928c.384-3.136-.96-8.7-7.3-8.7C-119.488-16.928-122.688-13.376-122.688-8.32Zm2.336-1.664c.512-3.04,2.464-5.088,5.5-5.088,2.976,0,4.864,2.016,5.056,5.088ZM-99.744.32A4.154,4.154,0,0,0-97.6-.224V-2.208a3.27,3.27,0,0,1-2.016.544c-1.248,0-2.368-.8-2.368-2.72V-14.72h4.672v-1.888h-4.672v-3.84h-2.08c0,3.712-.064,3.84-3.2,3.84v1.888h3.136V-4.384C-104.128-1.184-102.3.32-99.744.32Zm18.624,0c5.184,0,8.608-3.168,8.608-8.064V-23.072H-74.88V-7.52c0,3.456-2.464,5.76-6.24,5.76-3.744,0-6.208-2.3-6.208-5.76V-23.072H-89.7V-7.744C-89.7-2.848-86.3.32-81.12.32Zm17.28,0c3.52,0,5.952-1.984,5.952-4.928,0-3.168-2.08-4.1-4.384-4.7l-3.1-.768c-1.344-.32-2.368-1.024-2.368-2.368,0-1.376,1.312-2.592,3.36-2.592a3.672,3.672,0,0,1,3.9,3.2h.128l2.048-.8c-.64-2.656-2.72-4.288-6.08-4.288-3.328,0-5.664,1.984-5.664,4.544,0,2.784,1.952,3.744,3.968,4.256l3.2.768c1.6.384,2.688,1.184,2.688,2.752,0,1.824-1.472,2.976-3.648,2.976a4.323,4.323,0,0,1-4.64-3.936h-.128l-1.984.992C-70.144-1.952-68,.32-63.84.32Zm18.56,0A6.389,6.389,0,0,0-39.552-3.1V0h2.144V-11.1c0-3.808-2.688-5.824-6.3-5.824-3.9,0-6.08,2.208-6.848,4.7l2.144.7a4.376,4.376,0,0,1,4.7-3.52c2.368,0,4.16,1.28,4.16,4.1v.576l-5.792.9c-3.424.544-5.536,2.24-5.536,5.056C-50.88-1.536-48.544.32-45.28.32Zm-3.328-4.8c0-1.856,1.344-2.816,3.552-3.168l5.5-.9v2.528a5.681,5.681,0,0,1-5.5,4.48C-47.136-1.536-48.608-2.688-48.608-4.48ZM-28.832.32a4.154,4.154,0,0,0,2.144-.544V-2.208a3.269,3.269,0,0,1-2.016.544c-1.248,0-2.368-.8-2.368-2.72V-14.72H-26.4v-1.888h-4.672v-3.84h-2.08c0,3.712-.064,3.84-3.2,3.84v1.888h3.136V-4.384C-33.216-1.184-31.392.32-28.832.32ZM-18.624,0h2.368V-10.016h6.688c4.48,0,7.168-2.464,7.168-6.56,0-4.064-2.688-6.5-7.168-6.5h-9.056ZM-9.7-12.1h-6.56v-8.9H-9.7c3.072,0,4.864,1.664,4.864,4.416C-4.832-13.792-6.624-12.1-9.7-12.1ZM5.76.32c4.64,0,8.064-3.648,8.064-8.64,0-4.96-3.424-8.608-8.064-8.608C1.088-16.928-2.3-13.28-2.3-8.32-2.3-3.328,1.088.32,5.76.32Zm0-1.984C2.4-1.664,0-4.48,0-8.32s2.4-6.624,5.76-6.624,5.792,2.784,5.792,6.624S9.12-1.664,5.76-1.664ZM21.7.32c3.52,0,5.952-1.984,5.952-4.928,0-3.168-2.08-4.1-4.384-4.7l-3.1-.768c-1.344-.32-2.368-1.024-2.368-2.368,0-1.376,1.312-2.592,3.36-2.592a3.672,3.672,0,0,1,3.9,3.2h.128l2.048-.8c-.64-2.656-2.72-4.288-6.08-4.288-3.328,0-5.664,1.984-5.664,4.544,0,2.784,1.952,3.744,3.968,4.256l3.2.768c1.6.384,2.688,1.184,2.688,2.752,0,1.824-1.472,2.976-3.648,2.976a4.323,4.323,0,0,1-4.64-3.936h-.128l-1.984.992C15.392-1.952,17.536.32,21.7.32ZM35.36.32c3.52,0,5.952-1.984,5.952-4.928,0-3.168-2.08-4.1-4.384-4.7l-3.1-.768c-1.344-.32-2.368-1.024-2.368-2.368,0-1.376,1.312-2.592,3.36-2.592a3.672,3.672,0,0,1,3.9,3.2h.128l2.048-.8c-.64-2.656-2.72-4.288-6.08-4.288-3.328,0-5.664,1.984-5.664,4.544,0,2.784,1.952,3.744,3.968,4.256l3.2.768c1.6.384,2.688,1.184,2.688,2.752,0,1.824-1.472,2.976-3.648,2.976a4.323,4.323,0,0,1-4.64-3.936h-.128l-1.984.992C29.056-1.952,31.2.32,35.36.32ZM45.664,0V-16.608H43.52V0ZM44.576-19.744a1.584,1.584,0,0,0,1.6-1.6,1.578,1.578,0,0,0-1.6-1.568,1.55,1.55,0,0,0-1.568,1.568A1.558,1.558,0,0,0,44.576-19.744ZM56.864.32c4.48,0,7.808-3.648,7.808-8.64s-3.328-8.608-7.68-8.608a6.75,6.75,0,0,0-5.856,3.1v-9.568H48.992V0h2.144V-2.848A6.669,6.669,0,0,0,56.864.32Zm-.192-1.984A5.577,5.577,0,0,1,51.136-7.2V-9.44a5.557,5.557,0,0,1,5.664-5.5c3.232,0,5.6,2.624,5.6,6.624S60.032-1.664,56.672-1.664ZM69.184,0V-23.392H67.04V0Zm2.368-8.32c0,5.088,3.3,8.64,7.936,8.64,3.744,0,6.3-1.888,7.232-4.864l-2.208-.768c-.7,2.528-2.3,3.68-4.992,3.68-3.392,0-5.7-2.5-5.76-6.592H86.688c.384-3.136-.96-8.7-7.3-8.7C74.752-16.928,71.552-13.376,71.552-8.32Zm2.336-1.664c.512-3.04,2.464-5.088,5.5-5.088,2.976,0,4.864,2.016,5.056,5.088ZM95.1,0h14.624V-2.08H97.472v-9.152H107.3v-2.08H97.472v-7.68h12.256v-2.08H95.1ZM114.88,0h2.4l5.28-14.5.736-1.984v-.128h-2.24l-.064.128L120.32-14.5,116.064-2.432,111.744-14.5l-.7-1.984-.064-.128H108.8v.128l.736,1.984Zm8.448-8.32c0,5.088,3.3,8.64,7.936,8.64,3.744,0,6.3-1.888,7.232-4.864l-2.208-.768c-.7,2.528-2.3,3.68-4.992,3.68-3.392,0-5.7-2.5-5.76-6.592h12.928c.384-3.136-.96-8.7-7.3-8.7C126.528-16.928,123.328-13.376,123.328-8.32Zm2.336-1.664c.512-3.04,2.464-5.088,5.5-5.088,2.976,0,4.864,2.016,5.056,5.088ZM140.9,0h2.144V-10.368c.672-2.5,2.72-4.576,5.28-4.576a3.934,3.934,0,0,1,4.256,4.256V0h2.176V-11.136c0-3.584-2.464-5.792-6.144-5.792a6.809,6.809,0,0,0-5.568,3.136v-2.816H140.9Zm22.4.32a4.154,4.154,0,0,0,2.144-.544V-2.208a3.27,3.27,0,0,1-2.016.544c-1.248,0-2.368-.8-2.368-2.72V-14.72h4.672v-1.888h-4.672v-3.84h-2.08c0,3.712-.064,3.84-3.2,3.84v1.888h3.136V-4.384C158.912-1.184,160.736.32,163.3.32ZM-110.912,42h2.432l.064-.128.768-1.92,1.664-4.224h10.816l1.664,4.224.768,1.92.064.128h2.56v-.128l-.832-1.92-8.448-21.024h-2.272l-8.48,21.024-.768,1.92Zm5.76-8.384,4.608-11.584L-96,33.616Zm16.416,14.368h2.144v-8.8a6.714,6.714,0,0,0,5.728,3.136c4.48,0,7.808-3.616,7.808-8.608s-3.328-8.64-7.68-8.64a6.7,6.7,0,0,0-5.856,3.136V25.392h-2.144Zm7.68-7.648a5.528,5.528,0,0,1-5.536-5.5V32.56a5.6,5.6,0,0,1,5.664-5.5c3.232,0,5.6,2.624,5.6,6.656C-75.328,37.712-77.7,40.336-81.056,40.336ZM-70.688,42h2.144V31.824c.48-2.112,2.272-5.184,5.792-4.576V25.136a4.377,4.377,0,0,0-.928-.064,5.477,5.477,0,0,0-4.864,3.264V25.392h-2.144Zm11.712,0V25.392H-61.12V42Zm-1.088-19.744a1.584,1.584,0,0,0,1.6-1.6,1.578,1.578,0,0,0-1.6-1.568,1.55,1.55,0,0,0-1.568,1.568A1.558,1.558,0,0,0-60.064,22.256ZM-53.5,42V18.608h-2.144V42Zm7.84,0H-30.4V39.92h-12l7.072-6.176c3.488-2.976,4.96-5.568,4.96-8.352,0-4.128-2.88-6.784-7.264-6.784-4.768,0-7.68,3.136-7.424,7.776l2.3.416h.128c-.32-3.68,1.472-6.112,4.992-6.112a4.444,4.444,0,0,1,4.8,4.7c0,2.336-1.28,4.352-3.968,6.72l-8.864,7.744Zm25.088.32c4.928,0,8.16-2.5,8.16-6.656a6,6,0,0,0-4.448-5.856,5.779,5.779,0,0,0,3.648-4.928c0-3.808-2.912-6.272-7.36-6.272-4.416,0-7.36,2.464-7.36,6.272a5.835,5.835,0,0,0,3.648,4.928A6,6,0,0,0-28.7,35.664C-28.7,39.824-25.472,42.32-20.576,42.32Zm0-2.016c-3.424,0-5.728-1.76-5.728-4.64s2.3-4.7,5.728-4.7c3.456,0,5.76,1.824,5.76,4.7S-17.12,40.3-20.576,40.3Zm0-11.392c-2.912,0-4.96-1.7-4.96-3.936,0-2.56,1.952-4.352,4.96-4.352,3.04,0,4.992,1.792,4.992,4.352C-15.584,27.216-17.632,28.912-20.576,28.912Zm9.888,5.728h9.12V32.688h-9.12ZM7.84,42.32c4.768,0,8-2.656,8-6.624a5.7,5.7,0,0,0-5.632-5.824,5.581,5.581,0,0,0,4.7-5.408c0-3.488-2.912-5.856-7.1-5.856-4.288,0-7.264,2.976-7.52,6.08l2.208.64h.128a5.115,5.115,0,0,1,5.184-4.64c2.688,0,4.672,1.632,4.672,3.84,0,2.272-2.272,4.48-5.472,4.48-.384,0-.864,0-1.632-.064v2.144c.672-.064,1.408-.064,2.144-.064,3.424,0,5.888,1.792,5.888,4.7,0,2.656-2.24,4.512-5.6,4.512-3.488,0-5.6-2.048-5.76-5.184H1.92l-2.24.672C-.16,39.408,2.912,42.32,7.84,42.32Zm18.3,0c5.7,0,8.576-4.736,8.576-11.872s-2.88-11.84-8.576-11.84c-5.728,0-8.576,4.736-8.576,11.84S20.416,42.32,26.144,42.32Zm0-2.08c-4.032,0-6.112-3.936-6.112-9.792,0-5.824,2.08-9.76,6.112-9.76s6.144,3.968,6.144,9.76C32.288,36.272,30.176,40.24,26.144,40.24ZM41.824,42H57.088V39.92h-12l7.072-6.176c3.488-2.976,4.96-5.568,4.96-8.352,0-4.128-2.88-6.784-7.264-6.784-4.768,0-7.68,3.136-7.424,7.776l2.3.416h.128c-.32-3.68,1.472-6.112,4.992-6.112a4.444,4.444,0,0,1,4.8,4.7c0,2.336-1.28,4.352-3.968,6.72l-8.864,7.744Zm25.632.32c5.7,0,8.576-4.736,8.576-11.872s-2.88-11.84-8.576-11.84c-5.728,0-8.576,4.736-8.576,11.84S61.728,42.32,67.456,42.32Zm0-2.08c-4.032,0-6.112-3.936-6.112-9.792,0-5.824,2.08-9.76,6.112-9.76s6.144,3.968,6.144,9.76C73.6,36.272,71.488,40.24,67.456,40.24ZM77.312,42H92.576V39.92h-12l7.072-6.176c3.488-2.976,4.96-5.568,4.96-8.352,0-4.128-2.88-6.784-7.264-6.784-4.768,0-7.68,3.136-7.424,7.776l2.3.416h.128c-.32-3.68,1.472-6.112,4.992-6.112a4.444,4.444,0,0,1,4.8,4.7c0,2.336-1.28,4.352-3.968,6.72l-8.864,7.744Zm24.8.256c4.8,0,7.936-3.136,7.936-7.84a7.45,7.45,0,0,0-7.808-7.84,7.879,7.879,0,0,0-5.248,2.016l1.056-7.584h11.04v-2.08H96.32L94.592,31.5h2.24a5.624,5.624,0,0,1,5.024-2.944c3.52,0,5.728,2.3,5.728,5.856,0,3.392-2.144,5.76-5.5,5.76a5.509,5.509,0,0,1-5.856-4.928H96.1l-2.208.512C94.464,39.76,97.664,42.256,102.112,42.256Z" transform="translate(164.032 23.392)" fill="#fff"/>
</svg>
