<svg xmlns="http://www.w3.org/2000/svg" width="435.87" height="42.978" viewBox="0 0 435.87 42.978">
  <path id="Path_8" data-name="Path 8" d="M-203.406.58c8.932,0,14.848-4.582,14.848-11.6,0-6.9-4.292-10.034-9.744-11.6l-8.41-2.494c-3.712-1.1-6.322-2.9-6.322-6.612,0-4.234,3.422-6.9,9.4-6.9,5.51,0,9.338,2.9,10.208,7.656h.232l3.77-1.334c-.87-5.858-6.5-10.092-14.21-10.092-8.236,0-13.862,4.292-13.862,10.788,0,6.38,4.408,9.106,9.628,10.614l8.294,2.436c3.886,1.16,6.554,3.538,6.554,7.656,0,4.582-4,7.714-10.382,7.714-6.032,0-11.136-4-11.658-9.86h-.232l-3.886,1.334C-218.37-4.524-211.468.58-203.406.58Zm28.942,0a7.529,7.529,0,0,0,3.886-.986V-4a5.926,5.926,0,0,1-3.654.986c-2.262,0-4.292-1.45-4.292-4.93V-26.68h8.468V-30.1h-8.468v-6.96h-3.77c0,6.728-.116,6.96-5.8,6.96v3.422h5.684V-7.946C-182.41-2.146-179.1.58-174.464.58Zm7.656-.58h3.886V-18.444c.87-3.828,4.118-9.4,10.5-8.294v-3.828a7.933,7.933,0,0,0-1.682-.116c-4.118,0-7.134,2.61-8.816,5.916V-30.1h-3.886Zm13.456-15.08c0,9.222,5.974,15.66,14.384,15.66,6.786,0,11.426-3.422,13.108-8.816l-4-1.392c-1.276,4.582-4.176,6.67-9.048,6.67-6.148,0-10.324-4.524-10.44-11.948h23.432c.7-5.684-1.74-15.776-13.224-15.776C-147.552-30.682-153.352-24.244-153.352-15.08Zm4.234-3.016c.928-5.51,4.466-9.222,9.976-9.222,5.394,0,8.816,3.654,9.164,9.222ZM-113.216.58a11.58,11.58,0,0,0,10.382-6.206V0h3.886V-20.126c0-6.9-4.872-10.556-11.426-10.556-7.076,0-11.02,4-12.412,8.526l3.886,1.276c.928-3.77,3.538-6.38,8.526-6.38,4.292,0,7.54,2.32,7.54,7.424v1.044l-10.5,1.624c-6.206.986-10.034,4.06-10.034,9.164C-123.366-2.784-119.132.58-113.216.58Zm-6.032-8.7c0-3.364,2.436-5.1,6.438-5.742l9.976-1.624V-10.9c-1.044,4-4.35,8.12-9.976,8.12C-116.58-2.784-119.248-4.872-119.248-8.12ZM-93.206,0h3.886V-18.792c1.16-4.524,4.872-8.294,9.628-8.294,3.48,0,6.554,1.8,6.554,7.54V0h3.944V-18.792c1.16-4.582,4.814-8.294,9.454-8.294,3.6,0,6.728,1.8,6.728,7.54V0h3.944V-20.416c0-5.974-3.48-10.266-10.208-10.266-4.466,0-8.12,2.494-10.5,6.38-1.218-3.886-4.292-6.38-9.454-6.38A12.485,12.485,0,0,0-89.32-25v-5.1h-3.886Zm70.3,0h4.292V-17.574L-3.886-41.586v-.232H-8.41l-.174.232-2.088,3.48L-20.706-21.634l-9.918-16.472-2.146-3.48-.116-.232h-4.7v.232l2.146,3.48L-22.91-17.574ZM4.756.58c8.41,0,14.616-6.612,14.616-15.66,0-8.99-6.206-15.6-14.616-15.6-8.468,0-14.616,6.612-14.616,15.6C-9.86-6.032-3.712.58,4.756.58Zm0-3.6c-6.09,0-10.44-5.1-10.44-12.064s4.35-12.006,10.44-12.006,10.5,5.046,10.5,12.006S10.846-3.016,4.756-3.016ZM34.51.58A12.342,12.342,0,0,0,44.6-5.1V0h3.886V-30.1H44.6V-11.31c-1.218,4.524-4.93,8.294-9.57,8.294S27.26-5.742,27.26-10.73V-30.1H23.374V-9.918C23.374-3.48,27.84.58,34.51.58ZM54.52,0h3.886V-18.444c.87-3.828,4.118-9.4,10.5-8.294v-3.828a7.933,7.933,0,0,0-1.682-.116c-4.118,0-7.134,2.61-8.816,5.916V-30.1H54.52ZM81.374,0h15.66c8.642,0,13.4-4.176,13.4-12.122,0-5.278-2.668-8.816-7.482-10.44a9.193,9.193,0,0,0,6.032-8.7c0-6.786-4.814-10.556-12.934-10.556H81.374ZM96.106-3.77H85.666V-20.358h10.44c6.438,0,9.86,2.958,9.86,8.236C105.966-6.786,102.544-3.77,96.106-3.77Zm-.058-20.358H85.666v-13.92h10.44c5.278,0,8.468,2.61,8.468,7.018C104.574-26.506,101.442-24.128,96.048-24.128ZM114.782,0h3.886V-18.444c.87-3.828,4.118-9.4,10.5-8.294v-3.828a7.933,7.933,0,0,0-1.682-.116c-4.118,0-7.134,2.61-8.816,5.916V-30.1h-3.886Zm24.36.58a11.58,11.58,0,0,0,10.382-6.206V0h3.886V-20.126c0-6.9-4.872-10.556-11.426-10.556-7.076,0-11.02,4-12.412,8.526l3.886,1.276c.928-3.77,3.538-6.38,8.526-6.38,4.292,0,7.54,2.32,7.54,7.424v1.044l-10.5,1.624c-6.206.986-10.034,4.06-10.034,9.164C128.992-2.784,133.226.58,139.142.58Zm-6.032-8.7c0-3.364,2.436-5.1,6.438-5.742l9.976-1.624V-10.9c-1.044,4-4.35,8.12-9.976,8.12C135.778-2.784,133.11-4.872,133.11-8.12ZM159.152,0h3.886V-18.792c1.218-4.524,4.93-8.294,9.57-8.294,4.756,0,7.714,2.9,7.714,7.714V0h3.944V-20.184c0-6.5-4.466-10.5-11.136-10.5A12.342,12.342,0,0,0,163.038-25v-5.1h-3.886ZM202.42.58c4.234,0,8.526-2.32,10.382-5.742V0h3.886V-42.4H212.8v17.342c-1.856-3.364-6.148-5.626-10.382-5.626-8.12,0-14.152,6.554-14.152,15.6S194.3.58,202.42.58Zm.348-3.6c-6.09,0-10.382-4.814-10.382-12.064s4.292-12.006,10.382-12.006c5.568,0,9.628,4.118,10.034,9.976v4.06C212.4-7.25,208.336-3.016,202.768-3.016Z" transform="translate(219.182 42.398)" fill="#fff"/>
</svg>
